<mxfile host="app.diagrams.net" modified="2023-08-02T10:34:09.578Z" agent="Mozilla/5.0 (X11; Ubuntu; Linux x86_64; rv:109.0) Gecko/20100101 Firefox/115.0" version="21.6.6" etag="ohvbB7L1o9QYj97x0ahS" type="github">
  <diagram name="Page-1" id="M6_NjuZCdOAnynNvaj23">
    <mxGraphModel>
      <root>
        <mxCell id="0" />
        <mxCell id="1" parent="0" />
      </root>
    </mxGraphModel>
  </diagram>
</mxfile>
